<svg width="245" height="38" viewBox="0 0 245 38" fill="none" xmlns="http://www.w3.org/2000/svg">
<path d="M22 2.1V7.75H7.45V16.7H18.6V22.25H7.45V37H0.45V2.1H22ZM25.1637 23.05C25.1637 20.25 25.7137 17.7667 26.8137 15.6C27.947 13.4333 29.4637 11.7667 31.3637 10.6C33.297 9.43333 35.447 8.85 37.8137 8.85C39.8803 8.85 41.6803 9.26667 43.2137 10.1C44.7803 10.9333 46.0303 11.9833 46.9637 13.25V9.3H54.0137V37H46.9637V32.95C46.0637 34.25 44.8137 35.3333 43.2137 36.2C41.647 37.0333 39.8303 37.45 37.7637 37.45C35.4303 37.45 33.297 36.85 31.3637 35.65C29.4637 34.45 27.947 32.7667 26.8137 30.6C25.7137 28.4 25.1637 25.8833 25.1637 23.05ZM46.9637 23.15C46.9637 21.45 46.6303 20 45.9637 18.8C45.297 17.5667 44.397 16.6333 43.2637 16C42.1303 15.3333 40.9137 15 39.6137 15C38.3137 15 37.1137 15.3167 36.0137 15.95C34.9137 16.5833 34.0137 17.5167 33.3137 18.75C32.647 19.95 32.3137 21.3833 32.3137 23.05C32.3137 24.7167 32.647 26.1833 33.3137 27.45C34.0137 28.6833 34.9137 29.6333 36.0137 30.3C37.147 30.9667 38.347 31.3 39.6137 31.3C40.9137 31.3 42.1303 30.9833 43.2637 30.35C44.397 29.6833 45.297 28.75 45.9637 27.55C46.6303 26.3167 46.9637 24.85 46.9637 23.15ZM59.0504 23.15C59.0504 20.2833 59.6337 17.7833 60.8004 15.65C61.9671 13.4833 63.5837 11.8167 65.6504 10.65C67.7171 9.45 70.0837 8.85 72.7504 8.85C76.1837 8.85 79.0171 9.71667 81.2504 11.45C83.5171 13.15 85.0337 15.55 85.8004 18.65H78.2504C77.8504 17.45 77.1671 16.5167 76.2004 15.85C75.2671 15.15 74.1004 14.8 72.7004 14.8C70.7004 14.8 69.1171 15.5333 67.9504 17C66.7837 18.4333 66.2004 20.4833 66.2004 23.15C66.2004 25.7833 66.7837 27.8333 67.9504 29.3C69.1171 30.7333 70.7004 31.45 72.7004 31.45C75.5337 31.45 77.3837 30.1833 78.2504 27.65H85.8004C85.0337 30.65 83.5171 33.0333 81.2504 34.8C78.9837 36.5667 76.1504 37.45 72.7504 37.45C70.0837 37.45 67.7171 36.8667 65.6504 35.7C63.5837 34.5 61.9671 32.8333 60.8004 30.7C59.6337 28.5333 59.0504 26.0167 59.0504 23.15ZM116.679 22.55C116.679 23.55 116.612 24.45 116.479 25.25H96.2285C96.3952 27.25 97.0952 28.8167 98.3285 29.95C99.5618 31.0833 101.079 31.65 102.879 31.65C105.479 31.65 107.329 30.5333 108.429 28.3H115.979C115.179 30.9667 113.645 33.1667 111.379 34.9C109.112 36.6 106.329 37.45 103.029 37.45C100.362 37.45 97.9618 36.8667 95.8285 35.7C93.7285 34.5 92.0785 32.8167 90.8785 30.65C89.7118 28.4833 89.1285 25.9833 89.1285 23.15C89.1285 20.2833 89.7118 17.7667 90.8785 15.6C92.0452 13.4333 93.6785 11.7667 95.7785 10.6C97.8785 9.43333 100.295 8.85 103.029 8.85C105.662 8.85 108.012 9.41667 110.079 10.55C112.179 11.6833 113.795 13.3 114.929 15.4C116.095 17.4667 116.679 19.85 116.679 22.55ZM109.429 20.55C109.395 18.75 108.745 17.3167 107.479 16.25C106.212 15.15 104.662 14.6 102.829 14.6C101.095 14.6 99.6285 15.1333 98.4285 16.2C97.2618 17.2333 96.5452 18.6833 96.2785 20.55H109.429ZM128.788 13.35C129.688 12.0167 130.921 10.9333 132.488 10.1C134.088 9.26667 135.905 8.85 137.938 8.85C140.305 8.85 142.438 9.43333 144.338 10.6C146.271 11.7667 147.788 13.4333 148.888 15.6C150.021 17.7333 150.588 20.2167 150.588 23.05C150.588 25.8833 150.021 28.4 148.888 30.6C147.788 32.7667 146.271 34.45 144.338 35.65C142.438 36.85 140.305 37.45 137.938 37.45C135.871 37.45 134.055 37.05 132.488 36.25C130.955 35.4167 129.721 34.35 128.788 33.05V37H121.788V-4.76837e-07H128.788V13.35ZM143.438 23.05C143.438 21.3833 143.088 19.95 142.388 18.75C141.721 17.5167 140.821 16.5833 139.688 15.95C138.588 15.3167 137.388 15 136.088 15C134.821 15 133.621 15.3333 132.488 16C131.388 16.6333 130.488 17.5667 129.788 18.8C129.121 20.0333 128.788 21.4833 128.788 23.15C128.788 24.8167 129.121 26.2667 129.788 27.5C130.488 28.7333 131.388 29.6833 132.488 30.35C133.621 30.9833 134.821 31.3 136.088 31.3C137.388 31.3 138.588 30.9667 139.688 30.3C140.821 29.6333 141.721 28.6833 142.388 27.45C143.088 26.2167 143.438 24.75 143.438 23.05ZM167.975 37.45C165.308 37.45 162.908 36.8667 160.775 35.7C158.641 34.5 156.958 32.8167 155.725 30.65C154.525 28.4833 153.925 25.9833 153.925 23.15C153.925 20.3167 154.541 17.8167 155.775 15.65C157.041 13.4833 158.758 11.8167 160.925 10.65C163.091 9.45 165.508 8.85 168.175 8.85C170.841 8.85 173.258 9.45 175.425 10.65C177.591 11.8167 179.291 13.4833 180.525 15.65C181.791 17.8167 182.425 20.3167 182.425 23.15C182.425 25.9833 181.775 28.4833 180.475 30.65C179.208 32.8167 177.475 34.5 175.275 35.7C173.108 36.8667 170.675 37.45 167.975 37.45ZM167.975 31.35C169.241 31.35 170.425 31.05 171.525 30.45C172.658 29.8167 173.558 28.8833 174.225 27.65C174.891 26.4167 175.225 24.9167 175.225 23.15C175.225 20.5167 174.525 18.5 173.125 17.1C171.758 15.6667 170.075 14.95 168.075 14.95C166.075 14.95 164.391 15.6667 163.025 17.1C161.691 18.5 161.025 20.5167 161.025 23.15C161.025 25.7833 161.675 27.8167 162.975 29.25C164.308 30.65 165.975 31.35 167.975 31.35ZM199.859 37.45C197.193 37.45 194.793 36.8667 192.659 35.7C190.526 34.5 188.843 32.8167 187.609 30.65C186.409 28.4833 185.809 25.9833 185.809 23.15C185.809 20.3167 186.426 17.8167 187.659 15.65C188.926 13.4833 190.643 11.8167 192.809 10.65C194.976 9.45 197.393 8.85 200.059 8.85C202.726 8.85 205.143 9.45 207.309 10.65C209.476 11.8167 211.176 13.4833 212.409 15.65C213.676 17.8167 214.309 20.3167 214.309 23.15C214.309 25.9833 213.659 28.4833 212.359 30.65C211.093 32.8167 209.359 34.5 207.159 35.7C204.993 36.8667 202.559 37.45 199.859 37.45ZM199.859 31.35C201.126 31.35 202.309 31.05 203.409 30.45C204.543 29.8167 205.443 28.8833 206.109 27.65C206.776 26.4167 207.109 24.9167 207.109 23.15C207.109 20.5167 206.409 18.5 205.009 17.1C203.643 15.6667 201.959 14.95 199.959 14.95C197.959 14.95 196.276 15.6667 194.909 17.1C193.576 18.5 192.909 20.5167 192.909 23.15C192.909 25.7833 193.559 27.8167 194.859 29.25C196.193 30.65 197.859 31.35 199.859 31.35ZM235.844 37L226.444 25.2V37H219.444V-4.76837e-07H226.444V21.05L235.744 9.3H244.844L232.644 23.2L244.944 37H235.844Z" fill="#78A677"/>
</svg>
