<svg width="179" height="51" viewBox="0 0 179 51" fill="none" xmlns="http://www.w3.org/2000/svg">
<path d="M26.75 12.6C25.95 11.1333 24.85 10.0167 23.45 9.25C22.05 8.48333 20.4167 8.1 18.55 8.1C16.4833 8.1 14.65 8.56667 13.05 9.5C11.45 10.4333 10.2 11.7667 9.3 13.5C8.4 15.2333 7.95 17.2333 7.95 19.5C7.95 21.8333 8.4 23.8667 9.3 25.6C10.2333 27.3333 11.5167 28.6667 13.15 29.6C14.7833 30.5333 16.6833 31 18.85 31C21.5167 31 23.7 30.3 25.4 28.9C27.1 27.4667 28.2167 25.4833 28.75 22.95H16.75V17.6H35.65V23.7C35.1833 26.1333 34.1833 28.3833 32.65 30.45C31.1167 32.5167 29.1333 34.1833 26.7 35.45C24.3 36.6833 21.6 37.3 18.6 37.3C15.2333 37.3 12.1833 36.55 9.45 35.05C6.75 33.5167 4.61667 31.4 3.05 28.7C1.51667 26 0.75 22.9333 0.75 19.5C0.75 16.0667 1.51667 13 3.05 10.3C4.61667 7.56666 6.75 5.45 9.45 3.95C12.1833 2.41667 15.2167 1.65 18.55 1.65C22.4833 1.65 25.9 2.61667 28.8 4.55C31.7 6.45 33.7 9.13333 34.8 12.6H26.75ZM53.1289 37.45C50.4622 37.45 48.0622 36.8667 45.9289 35.7C43.7956 34.5 42.1122 32.8167 40.8789 30.65C39.6789 28.4833 39.0789 25.9833 39.0789 23.15C39.0789 20.3167 39.6956 17.8167 40.9289 15.65C42.1956 13.4833 43.9122 11.8167 46.0789 10.65C48.2456 9.45 50.6622 8.85 53.3289 8.85C55.9956 8.85 58.4122 9.45 60.5789 10.65C62.7456 11.8167 64.4456 13.4833 65.6789 15.65C66.9456 17.8167 67.5789 20.3167 67.5789 23.15C67.5789 25.9833 66.9289 28.4833 65.6289 30.65C64.3622 32.8167 62.6289 34.5 60.4289 35.7C58.2622 36.8667 55.8289 37.45 53.1289 37.45ZM53.1289 31.35C54.3956 31.35 55.5789 31.05 56.6789 30.45C57.8122 29.8167 58.7122 28.8833 59.3789 27.65C60.0456 26.4167 60.3789 24.9167 60.3789 23.15C60.3789 20.5167 59.6789 18.5 58.2789 17.1C56.9122 15.6667 55.2289 14.95 53.2289 14.95C51.2289 14.95 49.5456 15.6667 48.1789 17.1C46.8456 18.5 46.1789 20.5167 46.1789 23.15C46.1789 25.7833 46.8289 27.8167 48.1289 29.25C49.4622 30.65 51.1289 31.35 53.1289 31.35ZM85.0137 37.45C82.347 37.45 79.947 36.8667 77.8137 35.7C75.6803 34.5 73.997 32.8167 72.7637 30.65C71.5637 28.4833 70.9637 25.9833 70.9637 23.15C70.9637 20.3167 71.5803 17.8167 72.8137 15.65C74.0803 13.4833 75.797 11.8167 77.9637 10.65C80.1303 9.45 82.547 8.85 85.2137 8.85C87.8803 8.85 90.297 9.45 92.4637 10.65C94.6303 11.8167 96.3303 13.4833 97.5637 15.65C98.8303 17.8167 99.4637 20.3167 99.4637 23.15C99.4637 25.9833 98.8137 28.4833 97.5137 30.65C96.247 32.8167 94.5137 34.5 92.3137 35.7C90.147 36.8667 87.7137 37.45 85.0137 37.45ZM85.0137 31.35C86.2803 31.35 87.4637 31.05 88.5637 30.45C89.697 29.8167 90.597 28.8833 91.2637 27.65C91.9303 26.4167 92.2637 24.9167 92.2637 23.15C92.2637 20.5167 91.5637 18.5 90.1637 17.1C88.797 15.6667 87.1137 14.95 85.1137 14.95C83.1137 14.95 81.4303 15.6667 80.0637 17.1C78.7303 18.5 78.0637 20.5167 78.0637 23.15C78.0637 25.7833 78.7137 27.8167 80.0137 29.25C81.347 30.65 83.0137 31.35 85.0137 31.35ZM115.448 8.85C117.515 8.85 119.332 9.26667 120.898 10.1C122.465 10.9 123.698 11.95 124.598 13.25V9.3H131.648V37.2C131.648 39.7667 131.132 42.05 130.098 44.05C129.065 46.0833 127.515 47.6833 125.448 48.85C123.382 50.05 120.882 50.65 117.948 50.65C114.015 50.65 110.782 49.7333 108.248 47.9C105.748 46.0667 104.332 43.5667 103.998 40.4H110.948C111.315 41.6667 112.098 42.6667 113.298 43.4C114.532 44.1667 116.015 44.55 117.748 44.55C119.782 44.55 121.432 43.9333 122.698 42.7C123.965 41.5 124.598 39.6667 124.598 37.2V32.9C123.698 34.2 122.448 35.2833 120.848 36.15C119.282 37.0167 117.482 37.45 115.448 37.45C113.115 37.45 110.982 36.85 109.048 35.65C107.115 34.45 105.582 32.7667 104.448 30.6C103.348 28.4 102.798 25.8833 102.798 23.05C102.798 20.25 103.348 17.7667 104.448 15.6C105.582 13.4333 107.098 11.7667 108.998 10.6C110.932 9.43333 113.082 8.85 115.448 8.85ZM124.598 23.15C124.598 21.45 124.265 20 123.598 18.8C122.932 17.5667 122.032 16.6333 120.898 16C119.765 15.3333 118.548 15 117.248 15C115.948 15 114.748 15.3167 113.648 15.95C112.548 16.5833 111.648 17.5167 110.948 18.75C110.282 19.95 109.948 21.3833 109.948 23.05C109.948 24.7167 110.282 26.1833 110.948 27.45C111.648 28.6833 112.548 29.6333 113.648 30.3C114.782 30.9667 115.982 31.3 117.248 31.3C118.548 31.3 119.765 30.9833 120.898 30.35C122.032 29.6833 122.932 28.75 123.598 27.55C124.265 26.3167 124.598 24.85 124.598 23.15ZM145.485 -4.76837e-07V37H138.485V-4.76837e-07H145.485ZM178.151 22.55C178.151 23.55 178.085 24.45 177.951 25.25H157.701C157.868 27.25 158.568 28.8167 159.801 29.95C161.035 31.0833 162.551 31.65 164.351 31.65C166.951 31.65 168.801 30.5333 169.901 28.3H177.451C176.651 30.9667 175.118 33.1667 172.851 34.9C170.585 36.6 167.801 37.45 164.501 37.45C161.835 37.45 159.435 36.8667 157.301 35.7C155.201 34.5 153.551 32.8167 152.351 30.65C151.185 28.4833 150.601 25.9833 150.601 23.15C150.601 20.2833 151.185 17.7667 152.351 15.6C153.518 13.4333 155.151 11.7667 157.251 10.6C159.351 9.43333 161.768 8.85 164.501 8.85C167.135 8.85 169.485 9.41667 171.551 10.55C173.651 11.6833 175.268 13.3 176.401 15.4C177.568 17.4667 178.151 19.85 178.151 22.55ZM170.901 20.55C170.868 18.75 170.218 17.3167 168.951 16.25C167.685 15.15 166.135 14.6 164.301 14.6C162.568 14.6 161.101 15.1333 159.901 16.2C158.735 17.2333 158.018 18.6833 157.751 20.55H170.901Z" fill="#78A677"/>
</svg>
