<svg width="262" height="49" viewBox="0 0 262 49" fill="none" xmlns="http://www.w3.org/2000/svg">
<path d="M7.45 0.0999993V35H0.45V0.0999993H7.45ZM29.716 6.9C33.016 6.9 35.6827 7.95 37.716 10.05C39.7493 12.1167 40.766 15.0167 40.766 18.75V35H33.766V19.7C33.766 17.5 33.216 15.8167 32.116 14.65C31.016 13.45 29.516 12.85 27.616 12.85C25.6827 12.85 24.1493 13.45 23.016 14.65C21.916 15.8167 21.366 17.5 21.366 19.7V35H14.366V7.3H21.366V10.75C22.2993 9.55 23.4827 8.61667 24.916 7.95C26.3827 7.25 27.9827 6.9 29.716 6.9ZM58.0227 35.45C55.756 35.45 53.7227 35.05 51.9227 34.25C50.1227 33.4167 48.6893 32.3 47.6227 30.9C46.5893 29.5 46.0227 27.95 45.9227 26.25H52.9727C53.106 27.3167 53.6227 28.2 54.5227 28.9C55.456 29.6 56.606 29.95 57.9727 29.95C59.306 29.95 60.3393 29.6833 61.0727 29.15C61.8393 28.6167 62.2227 27.9333 62.2227 27.1C62.2227 26.2 61.756 25.5333 60.8227 25.1C59.9227 24.6333 58.4727 24.1333 56.4727 23.6C54.406 23.1 52.706 22.5833 51.3727 22.05C50.0727 21.5167 48.9393 20.7 47.9727 19.6C47.0393 18.5 46.5727 17.0167 46.5727 15.15C46.5727 13.6167 47.006 12.2167 47.8727 10.95C48.7727 9.68333 50.0393 8.68333 51.6727 7.95C53.3393 7.21667 55.2893 6.85 57.5227 6.85C60.8227 6.85 63.456 7.68333 65.4227 9.35C67.3893 10.9833 68.4727 13.2 68.6727 16H61.9727C61.8727 14.9 61.406 14.0333 60.5727 13.4C59.7727 12.7333 58.6893 12.4 57.3227 12.4C56.056 12.4 55.0727 12.6333 54.3727 13.1C53.706 13.5667 53.3727 14.2167 53.3727 15.05C53.3727 15.9833 53.8393 16.7 54.7727 17.2C55.706 17.6667 57.156 18.15 59.1227 18.65C61.1227 19.15 62.7727 19.6667 64.0727 20.2C65.3727 20.7333 66.4893 21.5667 67.4227 22.7C68.3893 23.8 68.8893 25.2667 68.9227 27.1C68.9227 28.7 68.4727 30.1333 67.5727 31.4C66.706 32.6667 65.4393 33.6667 63.7727 34.4C62.1393 35.1 60.2227 35.45 58.0227 35.45ZM82.8188 13.05V26.45C82.8188 27.3833 83.0354 28.0667 83.4688 28.5C83.9354 28.9 84.7021 29.1 85.7688 29.1H89.0188V35H84.6188C78.7188 35 75.7688 32.1333 75.7688 26.4V13.05H72.4688V7.3H75.7688V0.449998H82.8188V7.3H89.0188V13.05H82.8188ZM92.2535 21.05C92.2535 18.25 92.8035 15.7667 93.9035 13.6C95.0368 11.4333 96.5535 9.76667 98.4535 8.6C100.387 7.43333 102.537 6.85 104.904 6.85C106.97 6.85 108.77 7.26667 110.304 8.1C111.87 8.93333 113.12 9.98333 114.054 11.25V7.3H121.104V35H114.054V30.95C113.154 32.25 111.904 33.3333 110.304 34.2C108.737 35.0333 106.92 35.45 104.854 35.45C102.52 35.45 100.387 34.85 98.4535 33.65C96.5535 32.45 95.0368 30.7667 93.9035 28.6C92.8035 26.4 92.2535 23.8833 92.2535 21.05ZM114.054 21.15C114.054 19.45 113.72 18 113.054 16.8C112.387 15.5667 111.487 14.6333 110.354 14C109.22 13.3333 108.004 13 106.704 13C105.404 13 104.204 13.3167 103.104 13.95C102.004 14.5833 101.104 15.5167 100.404 16.75C99.7368 17.95 99.4035 19.3833 99.4035 21.05C99.4035 22.7167 99.7368 24.1833 100.404 25.45C101.104 26.6833 102.004 27.6333 103.104 28.3C104.237 28.9667 105.437 29.3 106.704 29.3C108.004 29.3 109.22 28.9833 110.354 28.35C111.487 27.6833 112.387 26.75 113.054 25.55C113.72 24.3167 114.054 22.85 114.054 21.15ZM138.79 6.85C140.857 6.85 142.674 7.26667 144.24 8.1C145.807 8.9 147.04 9.95 147.94 11.25V7.3H154.99V35.2C154.99 37.7667 154.474 40.05 153.44 42.05C152.407 44.0833 150.857 45.6833 148.79 46.85C146.724 48.05 144.224 48.65 141.29 48.65C137.357 48.65 134.124 47.7333 131.59 45.9C129.09 44.0667 127.674 41.5667 127.34 38.4H134.29C134.657 39.6667 135.44 40.6667 136.64 41.4C137.874 42.1667 139.357 42.55 141.09 42.55C143.124 42.55 144.774 41.9333 146.04 40.7C147.307 39.5 147.94 37.6667 147.94 35.2V30.9C147.04 32.2 145.79 33.2833 144.19 34.15C142.624 35.0167 140.824 35.45 138.79 35.45C136.457 35.45 134.324 34.85 132.39 33.65C130.457 32.45 128.924 30.7667 127.79 28.6C126.69 26.4 126.14 23.8833 126.14 21.05C126.14 18.25 126.69 15.7667 127.79 13.6C128.924 11.4333 130.44 9.76667 132.34 8.6C134.274 7.43333 136.424 6.85 138.79 6.85ZM147.94 21.15C147.94 19.45 147.607 18 146.94 16.8C146.274 15.5667 145.374 14.6333 144.24 14C143.107 13.3333 141.89 13 140.59 13C139.29 13 138.09 13.3167 136.99 13.95C135.89 14.5833 134.99 15.5167 134.29 16.75C133.624 17.95 133.29 19.3833 133.29 21.05C133.29 22.7167 133.624 24.1833 134.29 25.45C134.99 26.6833 135.89 27.6333 136.99 28.3C138.124 28.9667 139.324 29.3 140.59 29.3C141.89 29.3 143.107 28.9833 144.24 28.35C145.374 27.6833 146.274 26.75 146.94 25.55C147.607 24.3167 147.94 22.85 147.94 21.15ZM168.827 11.6C169.727 10.1333 170.894 8.98333 172.327 8.15C173.794 7.31667 175.46 6.9 177.327 6.9V14.25H175.477C173.277 14.25 171.61 14.7667 170.477 15.8C169.377 16.8333 168.827 18.6333 168.827 21.2V35H161.827V7.3H168.827V11.6ZM180.242 21.05C180.242 18.25 180.792 15.7667 181.892 13.6C183.025 11.4333 184.542 9.76667 186.442 8.6C188.375 7.43333 190.525 6.85 192.892 6.85C194.958 6.85 196.758 7.26667 198.292 8.1C199.858 8.93333 201.108 9.98333 202.042 11.25V7.3H209.092V35H202.042V30.95C201.142 32.25 199.892 33.3333 198.292 34.2C196.725 35.0333 194.908 35.45 192.842 35.45C190.508 35.45 188.375 34.85 186.442 33.65C184.542 32.45 183.025 30.7667 181.892 28.6C180.792 26.4 180.242 23.8833 180.242 21.05ZM202.042 21.15C202.042 19.45 201.708 18 201.042 16.8C200.375 15.5667 199.475 14.6333 198.342 14C197.208 13.3333 195.992 13 194.692 13C193.392 13 192.192 13.3167 191.092 13.95C189.992 14.5833 189.092 15.5167 188.392 16.75C187.725 17.95 187.392 19.3833 187.392 21.05C187.392 22.7167 187.725 24.1833 188.392 25.45C189.092 26.6833 189.992 27.6333 191.092 28.3C192.225 28.9667 193.425 29.3 194.692 29.3C195.992 29.3 197.208 28.9833 198.342 28.35C199.475 27.6833 200.375 26.75 201.042 25.55C201.708 24.3167 202.042 22.85 202.042 21.15ZM250.329 6.9C253.729 6.9 256.462 7.95 258.529 10.05C260.629 12.1167 261.679 15.0167 261.679 18.75V35H254.679V19.7C254.679 17.5333 254.129 15.8833 253.029 14.75C251.929 13.5833 250.429 13 248.529 13C246.629 13 245.112 13.5833 243.979 14.75C242.879 15.8833 242.329 17.5333 242.329 19.7V35H235.329V19.7C235.329 17.5333 234.779 15.8833 233.679 14.75C232.579 13.5833 231.079 13 229.179 13C227.245 13 225.712 13.5833 224.579 14.75C223.479 15.8833 222.929 17.5333 222.929 19.7V35H215.929V7.3H222.929V10.65C223.829 9.48333 224.979 8.56667 226.379 7.9C227.812 7.23333 229.379 6.9 231.079 6.9C233.245 6.9 235.179 7.36666 236.879 8.3C238.579 9.2 239.895 10.5 240.829 12.2C241.729 10.6 243.029 9.31667 244.729 8.35C246.462 7.38333 248.329 6.9 250.329 6.9Z" fill="#78A677"/>
</svg>
