<svg width="205" height="41" viewBox="0 0 205 41" fill="none" xmlns="http://www.w3.org/2000/svg">
<path d="M7.45 34.45H18.95V40H0.45V5.1H7.45V34.45ZM26.9492 9C25.7159 9 24.6826 8.61667 23.8492 7.85C23.0492 7.05 22.6492 6.06666 22.6492 4.9C22.6492 3.73333 23.0492 2.76666 23.8492 2C24.6826 1.2 25.7159 0.799998 26.9492 0.799998C28.1826 0.799998 29.1992 1.2 29.9992 2C30.8326 2.76666 31.2492 3.73333 31.2492 4.9C31.2492 6.06666 30.8326 7.05 29.9992 7.85C29.1992 8.61667 28.1826 9 26.9492 9ZM30.3992 12.3V40H23.3992V12.3H30.3992ZM52.6652 11.9C55.9652 11.9 58.6319 12.95 60.6652 15.05C62.6986 17.1167 63.7152 20.0167 63.7152 23.75V40H56.7152V24.7C56.7152 22.5 56.1652 20.8167 55.0652 19.65C53.9652 18.45 52.4652 17.85 50.5652 17.85C48.6319 17.85 47.0986 18.45 45.9652 19.65C44.8652 20.8167 44.3152 22.5 44.3152 24.7V40H37.3152V12.3H44.3152V15.75C45.2486 14.55 46.4319 13.6167 47.8652 12.95C49.3319 12.25 50.9319 11.9 52.6652 11.9ZM86.7719 40L77.3719 28.2V40H70.3719V3H77.3719V24.05L86.6719 12.3H95.7719L83.5719 26.2L95.8719 40H86.7719ZM125.321 25.55C125.321 26.55 125.254 27.45 125.121 28.25H104.871C105.038 30.25 105.738 31.8167 106.971 32.95C108.204 34.0833 109.721 34.65 111.521 34.65C114.121 34.65 115.971 33.5333 117.071 31.3H124.621C123.821 33.9667 122.288 36.1667 120.021 37.9C117.754 39.6 114.971 40.45 111.671 40.45C109.004 40.45 106.604 39.8667 104.471 38.7C102.371 37.5 100.721 35.8167 99.5211 33.65C98.3544 31.4833 97.7711 28.9833 97.7711 26.15C97.7711 23.2833 98.3544 20.7667 99.5211 18.6C100.688 16.4333 102.321 14.7667 104.421 13.6C106.521 12.4333 108.938 11.85 111.671 11.85C114.304 11.85 116.654 12.4167 118.721 13.55C120.821 14.6833 122.438 16.3 123.571 18.4C124.738 20.4667 125.321 22.85 125.321 25.55ZM118.071 23.55C118.038 21.75 117.388 20.3167 116.121 19.25C114.854 18.15 113.304 17.6 111.471 17.6C109.738 17.6 108.271 18.1333 107.071 19.2C105.904 20.2333 105.188 21.6833 104.921 23.55H118.071ZM128.63 26.05C128.63 23.25 129.18 20.7667 130.28 18.6C131.414 16.4333 132.947 14.7667 134.88 13.6C136.814 12.4333 138.964 11.85 141.33 11.85C143.13 11.85 144.847 12.25 146.48 13.05C148.114 13.8167 149.414 14.85 150.38 16.15V3H157.48V40H150.38V35.9C149.514 37.2667 148.297 38.3667 146.73 39.2C145.164 40.0333 143.347 40.45 141.28 40.45C138.947 40.45 136.814 39.85 134.88 38.65C132.947 37.45 131.414 35.7667 130.28 33.6C129.18 31.4 128.63 28.8833 128.63 26.05ZM150.43 26.15C150.43 24.45 150.097 23 149.43 21.8C148.764 20.5667 147.864 19.6333 146.73 19C145.597 18.3333 144.38 18 143.08 18C141.78 18 140.58 18.3167 139.48 18.95C138.38 19.5833 137.48 20.5167 136.78 21.75C136.114 22.95 135.78 24.3833 135.78 26.05C135.78 27.7167 136.114 29.1833 136.78 30.45C137.48 31.6833 138.38 32.6333 139.48 33.3C140.614 33.9667 141.814 34.3 143.08 34.3C144.38 34.3 145.597 33.9833 146.73 33.35C147.864 32.6833 148.764 31.75 149.43 30.55C150.097 29.3167 150.43 27.85 150.43 26.15ZM167.867 9C166.634 9 165.601 8.61667 164.767 7.85C163.967 7.05 163.567 6.06666 163.567 4.9C163.567 3.73333 163.967 2.76666 164.767 2C165.601 1.2 166.634 0.799998 167.867 0.799998C169.101 0.799998 170.117 1.2 170.917 2C171.751 2.76666 172.167 3.73333 172.167 4.9C172.167 6.06666 171.751 7.05 170.917 7.85C170.117 8.61667 169.101 9 167.867 9ZM171.317 12.3V40H164.317V12.3H171.317ZM193.583 11.9C196.883 11.9 199.55 12.95 201.583 15.05C203.617 17.1167 204.633 20.0167 204.633 23.75V40H197.633V24.7C197.633 22.5 197.083 20.8167 195.983 19.65C194.883 18.45 193.383 17.85 191.483 17.85C189.55 17.85 188.017 18.45 186.883 19.65C185.783 20.8167 185.233 22.5 185.233 24.7V40H178.233V12.3H185.233V15.75C186.167 14.55 187.35 13.6167 188.783 12.95C190.25 12.25 191.85 11.9 193.583 11.9Z" fill="#78A677"/>
</svg>
