<svg width="211" height="51" viewBox="0 0 211 51" fill="none" xmlns="http://www.w3.org/2000/svg">
<path d="M29.95 9.3L12.8 50.1H5.35L11.35 36.3L0.25 9.3H8.1L15.25 28.65L22.5 9.3H29.95ZM46.0234 37.45C43.3568 37.45 40.9568 36.8667 38.8234 35.7C36.6901 34.5 35.0068 32.8167 33.7734 30.65C32.5734 28.4833 31.9734 25.9833 31.9734 23.15C31.9734 20.3167 32.5901 17.8167 33.8234 15.65C35.0901 13.4833 36.8068 11.8167 38.9734 10.65C41.1401 9.45 43.5568 8.85 46.2234 8.85C48.8901 8.85 51.3068 9.45 53.4734 10.65C55.6401 11.8167 57.3401 13.4833 58.5734 15.65C59.8401 17.8167 60.4734 20.3167 60.4734 23.15C60.4734 25.9833 59.8234 28.4833 58.5234 30.65C57.2568 32.8167 55.5234 34.5 53.3234 35.7C51.1568 36.8667 48.7234 37.45 46.0234 37.45ZM46.0234 31.35C47.2901 31.35 48.4734 31.05 49.5734 30.45C50.7068 29.8167 51.6068 28.8833 52.2734 27.65C52.9401 26.4167 53.2734 24.9167 53.2734 23.15C53.2734 20.5167 52.5734 18.5 51.1734 17.1C49.8068 15.6667 48.1234 14.95 46.1234 14.95C44.1234 14.95 42.4401 15.6667 41.0734 17.1C39.7401 18.5 39.0734 20.5167 39.0734 23.15C39.0734 25.7833 39.7234 27.8167 41.0234 29.25C42.3568 30.65 44.0234 31.35 46.0234 31.35ZM91.7582 9.3V37H84.7082V33.5C83.8082 34.7 82.6249 35.65 81.1582 36.35C79.7249 37.0167 78.1582 37.35 76.4582 37.35C74.2915 37.35 72.3749 36.9 70.7082 36C69.0415 35.0667 67.7249 33.7167 66.7582 31.95C65.8249 30.15 65.3582 28.0167 65.3582 25.55V9.3H72.3582V24.55C72.3582 26.75 72.9082 28.45 74.0082 29.65C75.1082 30.8167 76.6082 31.4 78.5082 31.4C80.4415 31.4 81.9582 30.8167 83.0582 29.65C84.1582 28.45 84.7082 26.75 84.7082 24.55V9.3H91.7582ZM106.815 15.05V28.45C106.815 29.3833 107.032 30.0667 107.465 30.5C107.932 30.9 108.698 31.1 109.765 31.1H113.015V37H108.615C102.715 37 99.7648 34.1333 99.7648 28.4V15.05H96.4648V9.3H99.7648V2.45H106.815V9.3H113.015V15.05H106.815ZM144.2 9.3V37H137.15V33.5C136.25 34.7 135.066 35.65 133.6 36.35C132.166 37.0167 130.6 37.35 128.9 37.35C126.733 37.35 124.816 36.9 123.15 36C121.483 35.0667 120.166 33.7167 119.2 31.95C118.266 30.15 117.8 28.0167 117.8 25.55V9.3H124.8V24.55C124.8 26.75 125.35 28.45 126.45 29.65C127.55 30.8167 129.05 31.4 130.95 31.4C132.883 31.4 134.4 30.8167 135.5 29.65C136.6 28.45 137.15 26.75 137.15 24.55V9.3H144.2ZM158.106 13.35C159.006 12.0167 160.24 10.9333 161.806 10.1C163.406 9.26667 165.223 8.85 167.256 8.85C169.623 8.85 171.756 9.43333 173.656 10.6C175.59 11.7667 177.106 13.4333 178.206 15.6C179.34 17.7333 179.906 20.2167 179.906 23.05C179.906 25.8833 179.34 28.4 178.206 30.6C177.106 32.7667 175.59 34.45 173.656 35.65C171.756 36.85 169.623 37.45 167.256 37.45C165.19 37.45 163.373 37.05 161.806 36.25C160.273 35.4167 159.04 34.35 158.106 33.05V37H151.106V-4.76837e-07H158.106V13.35ZM172.756 23.05C172.756 21.3833 172.406 19.95 171.706 18.75C171.04 17.5167 170.14 16.5833 169.006 15.95C167.906 15.3167 166.706 15 165.406 15C164.14 15 162.94 15.3333 161.806 16C160.706 16.6333 159.806 17.5667 159.106 18.8C158.44 20.0333 158.106 21.4833 158.106 23.15C158.106 24.8167 158.44 26.2667 159.106 27.5C159.806 28.7333 160.706 29.6833 161.806 30.35C162.94 30.9833 164.14 31.3 165.406 31.3C166.706 31.3 167.906 30.9667 169.006 30.3C170.14 29.6333 171.04 28.6833 171.706 27.45C172.406 26.2167 172.756 24.75 172.756 23.05ZM210.743 22.55C210.743 23.55 210.676 24.45 210.543 25.25H190.293C190.46 27.25 191.16 28.8167 192.393 29.95C193.626 31.0833 195.143 31.65 196.943 31.65C199.543 31.65 201.393 30.5333 202.493 28.3H210.043C209.243 30.9667 207.71 33.1667 205.443 34.9C203.176 36.6 200.393 37.45 197.093 37.45C194.426 37.45 192.026 36.8667 189.893 35.7C187.793 34.5 186.143 32.8167 184.943 30.65C183.776 28.4833 183.193 25.9833 183.193 23.15C183.193 20.2833 183.776 17.7667 184.943 15.6C186.11 13.4333 187.743 11.7667 189.843 10.6C191.943 9.43333 194.36 8.85 197.093 8.85C199.726 8.85 202.076 9.41667 204.143 10.55C206.243 11.6833 207.86 13.3 208.993 15.4C210.16 17.4667 210.743 19.85 210.743 22.55ZM203.493 20.55C203.46 18.75 202.81 17.3167 201.543 16.25C200.276 15.15 198.726 14.6 196.893 14.6C195.16 14.6 193.693 15.1333 192.493 16.2C191.326 17.2333 190.61 18.6833 190.343 20.55H203.493Z" fill="#78A677"/>
</svg>
